<?xml version="1.0" encoding="UTF-8" standalone="no"?>
<!-- Created with Inkscape (http://www.inkscape.org/) -->

<svg
   xmlns:dc="http://purl.org/dc/elements/1.1/"
   xmlns:cc="http://creativecommons.org/ns#"
   xmlns:rdf="http://www.w3.org/1999/02/22-rdf-syntax-ns#"
   xmlns:svg="http://www.w3.org/2000/svg"
   xmlns="http://www.w3.org/2000/svg"
   xmlns:sodipodi="http://sodipodi.sourceforge.net/DTD/sodipodi-0.dtd"
   xmlns:inkscape="http://www.inkscape.org/namespaces/inkscape"
   width="139.54976mm"
   height="297.45407mm"
   viewBox="0 0 139.54976 297.45407"
   version="1.1"
   id="svg8"
   sodipodi:docname="red-curtain-left.svg"
   inkscape:version="0.92.2 5c3e80d, 2017-08-06">
  <defs
     id="defs2" />
  <sodipodi:namedview
     id="base"
     pagecolor="#ffffff"
     bordercolor="#666666"
     borderopacity="1.0"
     inkscape:pageopacity="0.0"
     inkscape:pageshadow="2"
     inkscape:zoom="0.49497475"
     inkscape:cx="403.85368"
     inkscape:cy="683.50799"
     inkscape:document-units="mm"
     inkscape:current-layer="layer1"
     showgrid="false"
     inkscape:snap-page="true"
     inkscape:snap-grids="true"
     inkscape:window-width="1003"
     inkscape:window-height="920"
     inkscape:window-x="351"
     inkscape:window-y="0"
     inkscape:window-maximized="0"
     showguides="false"
     fit-margin-top="0"
     fit-margin-left="0"
     fit-margin-right="0"
     fit-margin-bottom="0" />
  <metadata
     id="metadata5">
    <rdf:RDF>
      <cc:Work
         rdf:about="">
        <dc:format>image/svg+xml</dc:format>
        <dc:type
           rdf:resource="http://purl.org/dc/dcmitype/StillImage" />
        <dc:title />
      </cc:Work>
    </rdf:RDF>
  </metadata>
  <g
     inkscape:groupmode="layer"
     id="layer2"
     inkscape:label="Layer 2"
     transform="translate(0,0.45396609)">
    <path
       style="fill:#000000;fill-opacity:0.09019608;stroke:none;stroke-width:0.41492525"
       d="M 7.0422517,295.3739 C 25.167193,290.01578 38.288178,282.6646 51.7702,270.31447 56.622275,265.86976 67.542128,252.82292 72.020732,246.11954 100.67254,203.23476 121.11455,134.92931 134.95136,35.841436 c 1.49005,-10.670657 4.70408,-36.04639444 4.59573,-36.28479021 -0.0199,-0.0412843 -31.42453,0.0416294 -69.790574,0.1841103 L 0,0 V 148.50007 297.0001 l 0.85648896,-0.0237 c 0.47107964,-0.0135 3.25465634,-0.73431 6.18576274,-1.60081 z"
       id="path4530"
       inkscape:connector-curvature="0" />
  </g>
  <g
     inkscape:label="Layer 1"
     inkscape:groupmode="layer"
     id="layer1"
     transform="translate(0,0.45396609)">
    <path
       inkscape:connector-curvature="0"
       id="path4523"
       d="M 6.4816101,295.3739 C 23.163633,290.01578 35.240031,282.6646 47.64874,270.31447 52.114545,265.86976 62.165055,252.82292 66.287114,246.11954 92.657943,203.23476 111.47256,134.92931 124.20781,35.841436 c 1.37143,-10.670657 4.32959,-36.04639444 4.22986,-36.28479021 -0.0185,-0.0412843 -28.922813,0.0416294 -64.234509,0.1841103 L 0,0 V 148.50007 297.0001 l 0.78830127,-0.0237 c 0.43356303,-0.0135 2.99556723,-0.73431 5.69330883,-1.60081 z"
       style="fill:#b8201f;fill-opacity:1;stroke:none;stroke-width:0.39806652" />
    <path
       inkscape:connector-curvature="0"
       id="path4525"
       d="m 5.5285609,295.37379 c 14.2289641,-5.35812 24.5296141,-12.7093 35.1136841,-25.05942 3.809128,-4.44472 12.381769,-17.49155 15.897713,-24.19493 22.493171,-42.88478 38.54118,-111.19024 49.403792,-210.278007 1.16979,-10.670658 3.69295,-36.04639144 3.60789,-36.28478721 -0.0146,-0.0412843 -24.669859,0.0416294 -54.789203,0.18417827 L 0,0 V 148.49998 297 l 0.67237721,-0.0237 C 1.0421908,296.9628 3.2274594,296.242 5.5285609,295.37549 Z"
       style="fill:#c82d29;fill-opacity:0.99523806;stroke:none;stroke-width:0.36763671" />
    <path
       style="fill:#ce3e3e;fill-opacity:1;stroke:none;stroke-width:0.33136186"
       d="M 4.4913727,295.37379 C 16.050903,290.01567 24.419099,282.66449 33.01756,270.31437 36.112078,265.86965 43.076454,252.82282 45.932779,246.11944 64.206122,203.23466 77.243449,134.9292 86.06818,35.841433 c 0.950324,-10.670658 3.000129,-36.04639144 2.931027,-36.28478721 -0.01205,-0.0412895 -20.041666,0.0416273 -44.510469,0.18417827 L 0,0 V 148.49998 297 l 0.5462363,-0.0237 c 0.30043556,-0.0135 2.0757109,-0.7343 3.9451364,-1.60081 z"
       id="path4527"
       inkscape:connector-curvature="0" />
  </g>
</svg>
